# xmcd
#
# Track frame offsets:
# 150
# 18335
# 36600
# 51755
# 68395
# 85453
# 102388
# 123348
# 143638
# 155238
# 169705
# 186685
# 205150
# 217685
#
# Disc length: 3087 seconds
#
#
# Revision: 3
# Processed by: cddbd v1.5.2PL0 Copyright (c) Steve Scherf et al.
# Submitted via: FreeRIP 2.942 
#
DISCID=c80c0d0e
DTITLE=Moraes Moreira - Tem um pé no Pelô
DYEAR=2001
DGENRE=Axé
TTITLE0=Tem um pé no Pelô
TTITLE1=Carnaval do Brasil (Bloco do prazer, Pombo correio (Double Morse), Festa do interior)
TTITLE2=Preta, Pretinha
TTITLE3=Coisa acesa
TTITLE4=Ferro na boneca
TTITLE5=Sintonia
TTITLE6=O amor é lindo
TTITLE7=E assim pintou Moçambique
TTITLE8=Lá vem o Brasil descendo a ladeira
TTITLE9=Coração de mulher
TTITLE10=Meu País
TTITLE11=Guerreiro da paz
TTITLE12=Colégio de aplicação
TTITLE13=Ser baiano
EXTD=YEAR: 2001
EXTT0=
EXTT1=
EXTT2=
EXTT3=
EXTT4=
EXTT5=
EXTT6=
EXTT7=
EXTT8=
EXTT9=
EXTT10=
EXTT11=
EXTT12=
EXTT13=
PLAYORDER=
